<?xml version="1.0" standalone="no"?>
<!DOCTYPE svg PUBLIC "-//W3C//DTD SVG 20010904//EN"
 "http://www.w3.org/TR/2001/REC-SVG-20010904/DTD/svg10.dtd">
<svg version="1.0" xmlns="http://www.w3.org/2000/svg"
 width="256.000000pt" height="256.000000pt" viewBox="0 0 256.000000 256.000000"
 preserveAspectRatio="xMidYMid meet">
<metadata>
Created by potrace 1.16, written by Peter Selinger 2001-2019
</metadata>
<g transform="translate(0.000000,256.000000) scale(0.100000,-0.100000)"
fill="#000000" stroke="none">
<path d="M1265 2419 c-2 -8 -4 -531 -2 -1164 l2 -1150 22 -1 c13 -1 20 3 16 9
-4 6 0 8 11 4 9 -4 15 -3 12 2 -6 9 53 38 67 33 5 -1 5 3 1 9 -5 9 -2 10 10 6
9 -4 15 -3 12 2 -6 9 53 38 67 33 5 -1 5 3 1 9 -5 9 -2 10 12 5 10 -4 15 -4
11 0 -10 10 72 56 86 47 6 -4 7 -1 2 7 -6 10 -4 12 9 7 9 -4 15 -3 12 1 -7 12
52 44 67 36 6 -4 9 -4 5 1 -10 11 50 47 64 39 7 -5 8 -2 3 6 -6 10 -4 12 9 7
11 -5 15 -3 10 5 -5 8 -1 9 12 4 10 -4 15 -4 11 0 -10 10 31 36 45 28 7 -5 8
-3 3 6 -6 10 -4 12 9 7 11 -5 15 -3 10 5 -5 8 -1 9 12 4 10 -4 15 -4 11 0 -10
10 52 46 66 38 7 -4 9 -3 4 1 -9 11 72 57 86 48 6 -4 7 -1 2 7 -6 10 -4 12 9
7 11 -5 15 -3 10 5 -5 8 -1 9 12 4 10 -4 15 -4 11 0 -10 10 31 36 45 28 7 -5
8 -3 3 6 -6 10 -4 12 9 7 9 -4 15 -3 12 2 -3 4 6 14 19 21 13 7 26 19 29 27 3
8 1 11 -4 8 -6 -3 -10 -2 -10 4 0 5 5 13 10 16 6 4 8 10 5 15 -3 5 -1 19 6 31
8 15 8 19 0 15 -13 -9 -13 -9 0 34 6 19 13 67 15 105 8 109 12 160 14 160 1 0
4 18 5 40 2 22 4 42 5 45 1 3 2 9 1 13 -1 4 4 17 10 29 8 15 8 18 0 14 -6 -4
-11 -3 -11 3 0 5 5 13 10 16 6 4 8 10 5 15 -3 5 -1 19 6 31 8 15 8 19 0 15
-12 -8 -15 6 -4 18 9 9 14 41 15 103 1 29 5 50 10 47 4 -3 4 6 -2 20 -5 14 -6
26 -1 26 5 0 9 10 9 23 -1 39 9 134 14 143 2 5 4 24 2 42 -1 18 2 35 7 38 5 3
7 9 4 14 -3 5 -1 19 6 31 8 15 8 19 0 15 -6 -4 -11 -3 -11 3 0 5 5 13 10 16 6
4 8 10 5 15 -3 5 -1 19 5 30 8 15 8 20 -1 20 -7 0 -8 4 -2 13 5 6 8 27 7 45
-1 17 2 30 7 26 12 -7 11 3 -1 27 -6 10 -7 19 -2 19 4 0 8 17 9 39 2 36 0 39
-37 51 -22 7 -37 16 -35 21 3 4 -5 5 -17 1 -14 -3 -19 -1 -14 6 5 8 2 10 -8 6
-9 -3 -16 -1 -16 5 0 6 -7 8 -15 5 -8 -4 -15 -1 -15 6 0 6 -5 8 -10 5 -14 -8
-52 4 -45 15 3 4 -5 6 -17 2 -13 -3 -19 -1 -15 5 5 7 -1 9 -15 5 -14 -3 -19
-1 -14 6 5 8 2 10 -8 6 -9 -3 -16 -1 -16 6 0 6 -4 9 -9 6 -11 -7 -71 13 -71
24 0 4 -10 6 -22 2 -13 -3 -19 -1 -15 5 5 7 -1 9 -15 5 -13 -3 -19 -1 -15 5 5
7 -1 9 -15 5 -16 -4 -19 -2 -13 8 5 8 4 11 -2 7 -13 -8 -84 14 -78 24 3 4 -5
5 -17 1 -13 -3 -19 -1 -15 5 4 6 1 11 -6 10 -31 -1 -48 4 -43 12 4 5 -4 7 -16
3 -14 -3 -19 -1 -14 6 5 8 2 10 -8 6 -9 -3 -16 -2 -16 4 0 6 -10 8 -22 4 -13
-3 -19 -1 -15 5 4 6 1 11 -6 10 -31 -1 -48 4 -43 12 4 5 -4 7 -16 3 -13 -3
-19 -1 -15 5 5 7 -1 9 -15 5 -14 -3 -19 -1 -14 6 5 8 2 10 -8 6 -9 -3 -16 -1
-16 6 0 6 -4 9 -8 6 -12 -7 -82 15 -77 25 3 4 -5 5 -17 1 -13 -3 -19 -1 -15 5
5 7 -1 9 -15 5 -12 -3 -19 -1 -15 4 3 5 -2 10 -11 10 -9 1 -29 4 -44 9 -20 5
-29 3 -33 -6z m214 -635 c12 -15 21 -38 21 -51 0 -34 -42 -73 -80 -73 -38 0
-80 39 -80 73 0 42 36 77 80 77 30 0 43 -6 59 -26z m313 9 c25 -23 24 -87 -2
-113 -44 -44 -130 -9 -130 54 0 63 85 102 132 59z m-338 -304 c76 -35 42 -149
-45 -149 -31 0 -69 44 -69 80 0 36 38 80 69 80 11 0 31 -5 45 -11z m330 -10
l26 -20 0 -352 c0 -346 0 -351 -22 -374 -21 -23 -59 -30 -93 -17 -40 16 -43
43 -37 402 l5 343 25 19 c32 26 63 25 96 -1z m-309 -324 c25 -24 25 -27 25
-200 0 -218 -10 -245 -88 -245 -14 0 -36 10 -49 22 -22 21 -23 26 -23 212 0
181 1 191 22 213 30 32 81 31 113 -2z"/>
</g>
</svg>
