<?xml version="1.0" standalone="no"?>
<!DOCTYPE svg PUBLIC "-//W3C//DTD SVG 20010904//EN"
 "http://www.w3.org/TR/2001/REC-SVG-20010904/DTD/svg10.dtd">
<svg version="1.0" xmlns="http://www.w3.org/2000/svg"
 width="920.000000pt" height="360.000000pt" viewBox="0 0 920.000000 360.000000"
 preserveAspectRatio="xMidYMid meet">

<g transform="translate(0.000000,360.000000) scale(0.100000,-0.100000)"
fill="#000000" stroke="none">
<path d="M4875 2631 c-11 -5 -31 -21 -45 -36 l-25 -27 0 -649 0 -649 33 -32
c28 -28 39 -33 82 -33 43 0 54 5 82 33 l33 32 0 650 0 650 -31 31 c-33 33 -92
46 -129 30z"/>
<path d="M6555 2631 c-11 -5 -31 -21 -45 -36 l-25 -27 -3 -451 c-2 -290 1
-475 8 -517 32 -195 195 -358 393 -391 86 -14 126 -6 163 32 24 25 29 39 29
79 0 42 -5 54 -31 81 -26 25 -42 32 -98 39 -87 11 -150 48 -191 114 l-30 49
-3 278 -3 278 145 3 146 3 32 33 c28 28 33 39 33 82 0 43 -5 54 -33 82 l-32
33 -144 3 -144 3 -4 85 c-3 78 -5 86 -34 115 -33 33 -92 46 -129 30z"/>
<path d="M7395 2631 c-11 -5 -31 -21 -45 -36 l-25 -27 0 -649 0 -649 33 -32
c28 -28 39 -33 82 -33 43 0 54 5 82 33 l33 32 0 650 0 650 -31 31 c-33 33 -92
46 -129 30z"/>
<path d="M3675 2391 c-11 -5 -31 -21 -45 -36 l-25 -27 0 -649 0 -649 33 -32
c28 -28 39 -33 82 -33 43 0 54 5 82 33 l33 32 3 119 4 119 54 -25 c175 -80
385 -36 518 108 59 64 91 118 122 209 16 46 19 85 19 240 0 155 -3 194 -19
240 -50 146 -134 248 -250 305 -132 65 -265 69 -393 10 l-57 -26 -32 32 c-34
33 -92 46 -129 30z m501 -255 c59 -27 107 -82 129 -145 21 -62 21 -320 0 -382
-33 -96 -130 -169 -225 -169 -60 0 -139 38 -178 86 -51 62 -62 109 -62 274 0
165 11 212 62 274 39 48 118 86 178 86 26 0 66 -10 96 -24z"/>
<path d="M5670 2389 c-82 -16 -183 -74 -244 -140 -59 -64 -91 -118 -122 -209
-16 -46 -19 -85 -19 -240 0 -197 6 -232 61 -342 86 -171 297 -280 481 -250
183 30 322 156 389 352 16 46 19 85 19 240 0 155 -3 194 -19 240 -50 146 -134
248 -250 305 -104 51 -192 64 -296 44z m186 -253 c28 -13 65 -41 82 -62 51
-62 62 -109 62 -274 0 -165 -11 -212 -62 -274 -39 -48 -118 -86 -178 -86 -60
0 -139 38 -178 86 -51 62 -62 109 -62 274 0 165 11 212 62 274 39 48 118 86
178 86 26 0 66 -10 96 -24z"/>
<path d="M7835 2391 c-34 -15 -65 -56 -71 -93 -5 -29 21 -98 170 -446 l177
-412 -34 -73 c-48 -104 -130 -167 -216 -167 -66 0 -121 -54 -121 -120 0 -81
63 -127 158 -115 163 20 301 115 372 255 37 75 437 1008 445 1041 17 68 -56
144 -129 135 -65 -8 -84 -38 -211 -336 -65 -151 -122 -284 -127 -294 -9 -16
-33 35 -138 278 -74 175 -137 308 -152 323 -27 27 -89 39 -123 24z"/>
</g>
</svg>
