<?xml version="1.0" standalone="no"?>
<!DOCTYPE svg PUBLIC "-//W3C//DTD SVG 20010904//EN"
 "http://www.w3.org/TR/2001/REC-SVG-20010904/DTD/svg10.dtd">
<svg version="1.0" xmlns="http://www.w3.org/2000/svg"
 width="920.000000pt" height="360.000000pt" viewBox="0 0 920.000000 360.000000"
 preserveAspectRatio="xMidYMid meet">
<metadata>
Created by potrace 1.16, written by Peter Selinger 2001-2019
</metadata>
<g transform="translate(0.000000,360.000000) scale(0.100000,-0.100000)"
fill="#000000" stroke="none">
<path d="M4834 2606 l-34 -34 0 -652 0 -652 34 -34 c30 -30 40 -34 85 -34 42
0 56 5 83 29 l33 29 5 636 c3 350 2 649 -3 665 -12 48 -60 81 -119 81 -44 0
-54 -4 -84 -34z"/>
<path d="M6514 2606 l-34 -34 0 -489 c0 -417 2 -497 16 -544 57 -197 244 -339
446 -339 66 0 72 2 104 34 30 30 34 40 34 86 0 45 -4 56 -33 85 -25 25 -44 34
-87 40 -106 14 -174 60 -214 145 -19 42 -21 65 -24 308 l-4 262 147 0 147 0
34 34 c30 30 34 40 34 86 0 46 -4 56 -34 86 l-34 34 -146 0 -146 0 0 86 c0 84
-1 87 -34 120 -30 30 -40 34 -86 34 -46 0 -56 -4 -86 -34z"/>
<path d="M7354 2606 l-34 -34 0 -652 0 -652 34 -34 c30 -30 40 -34 85 -34 42
0 56 5 83 29 l33 29 5 636 c3 350 2 649 -3 665 -12 48 -60 81 -119 81 -44 0
-54 -4 -84 -34z"/>
<path d="M7846 2399 c-59 -17 -102 -86 -89 -141 3 -13 82 -202 175 -420 l170
-398 -32 -67 c-50 -108 -98 -147 -201 -164 -77 -12 -95 -22 -119 -62 -36 -59
-15 -147 41 -178 14 -7 52 -10 104 -7 68 4 95 10 159 41 88 42 179 125 216
197 12 24 119 268 236 543 234 547 238 557 188 616 -34 41 -84 54 -138 36 -22
-8 -48 -24 -56 -36 -8 -13 -61 -131 -118 -263 -57 -133 -112 -261 -123 -286
l-20 -45 -124 289 c-68 159 -132 297 -142 308 -33 36 -81 51 -127 37z"/>
<path d="M3634 2366 l-34 -34 0 -652 0 -652 34 -34 c30 -30 40 -34 86 -34 46
0 56 4 86 34 l34 34 0 115 0 116 58 -27 c52 -25 67 -27 183 -27 124 0 125 0
201 37 124 62 221 179 262 317 23 78 23 404 0 482 -41 138 -138 255 -262 317
-76 37 -77 37 -201 37 -117 0 -130 -2 -185 -27 l-58 -28 -35 30 c-28 25 -42
30 -84 30 -45 0 -55 -4 -85 -34z m568 -252 c23 -16 56 -51 72 -77 39 -63 54
-194 40 -332 -13 -111 -43 -171 -113 -220 -39 -27 -50 -30 -121 -30 -71 0 -82
3 -121 30 -94 66 -127 174 -115 373 9 149 48 225 139 272 63 32 161 25 219
-16z"/>
<path d="M5615 2383 c-80 -29 -138 -68 -199 -133 -113 -123 -136 -198 -136
-450 0 -199 8 -247 56 -342 41 -80 136 -173 222 -216 76 -37 77 -37 202 -37
125 0 126 0 202 37 86 43 181 136 222 216 48 95 56 143 56 342 0 199 -8 247
-56 342 -41 80 -136 173 -222 216 -72 35 -81 37 -186 40 -86 2 -122 -2 -161
-15z m267 -269 c23 -16 56 -51 72 -77 39 -63 54 -194 40 -332 -13 -111 -43
-171 -113 -220 -39 -27 -50 -30 -121 -30 -71 0 -82 3 -121 30 -94 66 -127 174
-115 373 9 149 48 225 139 272 63 32 161 25 219 -16z"/>
</g>
</svg>
