<svg xmlns="http://www.w3.org/2000/svg" viewBox="0 0 333333 257045" shape-rendering="geometricPrecision" text-rendering="geometricPrecision" image-rendering="optimizeQuality" fill-rule="evenodd" clip-rule="evenodd"><defs><linearGradient id="a" gradientUnits="userSpaceOnUse" x1="0" y1="223243" x2="333333" y2="0"><stop offset="0" stop-color="#cbced0"/><stop offset="1" stop-color="#84838b"/></linearGradient><linearGradient id="b" gradientUnits="userSpaceOnUse" x1="137335" y1="257045" x2="321314" y2="69310.2"><stop offset="0" stop-color="#276dc3"/><stop offset="1" stop-color="#165caa"/></linearGradient></defs><path d="M166667 223243C74620 223243 0 173269 0 111622S74620 0 166667 0c92048 0 166666 49975 166666 111622s-74619 111621-166666 111621zm25511-179603c-69964 0-126681 34165-126681 76309s56717 76309 126681 76309 121596-23357 121596-76309c0-52935-51632-76309-121596-76309z" fill="url(#a)"/><path d="M253825 172885s10087 3044 15948 6009c2033 1029 5552 3082 8089 5778 2486 2641 3698 5316 3698 5316l39754 67027-64254 29-30047-56424s-6152-10572-9938-13637c-3158-2557-4505-3467-7628-3467h-15267l12 73488-56858 24V69310h114178s52004 938 52004 50415-49693 53160-49693 53160zm-24731-62856l-34421-22-17 31919 34438-11s15948-50 15948-16237c0-16513-15948-15649-15948-15649z" fill="url(#b)"/></svg>